<svg width="88" height="28" viewBox="0 0 88 28" fill="none" xmlns="http://www.w3.org/2000/svg">
<path d="M0.254883 27.426H3.87233V14.2491H6.96616C9.91055 14.2491 12.0815 15.0146 12.7796 16.6784V11.4224C12.0815 13.0863 9.91055 13.8518 6.96616 13.8518H3.87233V1.41384H5.79343C11.5328 1.41384 14.476 3.47375 16.1974 5.34892V1.01779H0.254883V27.426Z" fill="black"/>
<path d="M24.9796 27.6904C28.8971 27.6904 32.04 24.7322 32.04 18.4474C32.04 12.1626 28.8469 9.20432 24.9796 9.20432C20.9378 9.20432 17.9443 12.1626 17.9443 18.4474C17.9443 24.7322 21.0872 27.6904 24.9796 27.6904ZM23.0836 9.86479C25.1039 9.33714 27.624 12.7699 28.6723 17.4971C29.7207 22.2231 28.9473 26.4757 26.9258 27.0034C24.9294 27.531 22.4094 24.1248 21.3621 19.3976C20.3138 14.6451 21.0872 10.3924 23.0836 9.86479Z" fill="black"/>
<path d="M33.2874 2.65511V2.78793C34.5103 2.78793 35.059 2.97267 35.059 4.39867V27.426H38.6765V0.754578C37.3794 1.54667 35.1332 2.41724 33.2874 2.65511Z" fill="black"/>
<path d="M40.1733 2.65511V2.78793C41.3963 2.78793 41.945 2.97267 41.945 4.39867V27.426H45.5624V0.754578C44.2654 1.54667 42.0191 2.41724 40.1733 2.65511Z" fill="black"/>
<path d="M55.3426 27.6904C59.2601 27.6904 62.403 24.7322 62.403 18.4474C62.403 12.1626 59.2099 9.20432 55.3426 9.20432C51.3008 9.20432 48.3074 12.1626 48.3074 18.4474C48.3074 24.7322 51.4503 27.6904 55.3426 27.6904ZM53.4466 9.86479C55.467 9.33714 57.987 12.7699 59.0354 17.4971C60.0838 22.2231 59.3103 26.4757 57.2888 27.0034C55.2924 27.531 52.7724 24.1248 51.7252 19.3976C50.6768 14.6451 51.4503 10.3924 53.4466 9.86479Z" fill="black"/>
<path d="M64.1489 9.46876C65.3468 14.8033 65.7711 17.9982 67.1184 22.7254C67.8668 25.3926 68.4155 27.6904 71.4352 27.6904C73.2559 27.6904 74.8028 25.4192 75.9504 22.5938C75.9755 22.6203 75.9755 22.6722 76.0006 22.7254C76.749 25.3926 77.2977 27.6904 80.3174 27.6904C84.5337 27.6904 87.2785 15.5157 87.2785 12.0298C87.2785 9.96985 86.4297 8.38567 85.0072 7.62015L81.9886 9.46876C83.6108 10.6303 85.0825 12.2676 85.0825 16.018C85.0825 18.9485 83.5355 26.6073 81.5141 26.6073C81.0155 26.6073 80.541 25.9203 80.0675 24.283C78.4202 18.6055 77.9719 15.3575 76.6497 9.46876H73.0311C73.9301 13.5089 74.4035 16.3078 75.177 19.5305C75.2021 19.6355 75.2272 19.7671 75.2523 19.8734C75.8261 22.3559 73.9301 26.6073 72.6319 26.6073C72.1333 26.6073 71.6599 25.9203 71.1853 24.283L67.7675 9.46876H64.1489Z" fill="black"/>
</svg>
