<svg width="52" height="55" viewBox="0 0 52 55" fill="none" xmlns="http://www.w3.org/2000/svg">
<path fill-rule="evenodd" clip-rule="evenodd" d="M1.577 40.7999C1.37152 47.1454 5.95321 53.7519 12.4859 54.1457C21.2878 54.6775 32.5158 54.5286 37.0629 54.3172C39.821 54.1888 46.0406 53.5102 49.3568 48.5036C50.7892 46.3395 51.702 43.3696 51.5419 39.2724C51.2634 32.092 51.4372 24.7993 50.8702 17.6416C50.6252 14.5821 50.2686 11.4806 49.2797 8.59916C47.7555 4.16103 44.3592 1.97108 40.2487 0.982912C34.4134 -0.418435 27.1132 0.638778 22.2075 0.604257C19.317 0.582681 15.8871 0.325929 12.6144 0.670063C9.19241 1.0293 5.94531 2.05091 3.57741 4.55586C2.04129 6.1816 1.32114 8.25611 0.998112 10.4784C0.693851 12.5659 0.744232 14.7839 0.735341 16.8336C0.686936 26.0367 1.25199 31.6065 1.577 40.7999ZM46.2381 6.1762C42.8478 4.80506 39.2056 4.2031 35.4863 4.02833C32.4802 3.88701 29.4307 4.03912 26.4246 4.29372C23.3158 4.55802 20.2554 4.92589 17.3581 5.26571C15.4772 5.46744 12.971 5.40811 10.7374 5.91298C9.38109 6.22043 8.12058 6.72531 7.24435 7.75663C6.53902 8.57327 6.07176 9.58302 5.73786 10.664C5.19553 12.4105 4.98215 14.3394 4.77371 16.0482C4.5791 17.579 4.5139 19.2371 4.50995 20.9222C4.50304 23.4649 4.63146 26.0658 4.69863 28.3874L4.81421 41.0998C4.89127 43.3038 4.90411 45.9404 5.58277 48.1886C5.65587 48.4313 5.73589 48.6686 5.82578 48.9006C7.49921 50.9373 9.8355 52.3516 12.5679 52.5156C21.3174 53.0442 32.4782 52.8953 36.9997 52.6861C39.491 52.5706 45.1525 52.0679 48.1477 47.5456C49.42 45.6254 50.1925 42.978 50.0503 39.3414C49.7727 32.1858 49.9475 24.9169 49.3825 17.7829C49.1513 14.8702 48.8224 11.9154 47.8819 9.172C47.4789 7.99612 46.9197 7.00795 46.2381 6.1762ZM36.7902 51.0075C38.5318 51.1207 40.1065 50.8553 41.5418 50.2566C42.5939 49.8175 43.5452 49.1972 44.4076 48.4432C45.274 47.6859 46.0346 46.7851 46.6787 45.7764C47.0985 45.1194 47.4621 44.4117 47.7683 43.6684C48.5013 41.8798 48.9419 39.911 49.1049 37.9056C49.343 34.9648 48.9725 31.9776 48.0785 29.3044C48.5556 32.0089 48.4381 34.9065 47.8691 37.6952C47.5016 39.4978 46.9099 41.2196 46.1581 42.8194C45.7807 43.6231 45.3688 44.3966 44.9114 45.127C44.4452 45.8681 43.9483 46.5715 43.3832 47.2101C42.6966 47.9858 41.9478 48.6773 41.0904 49.2544C39.8398 50.097 38.436 50.7227 36.7902 51.0075ZM46.1018 6.01546C44.54 4.19986 42.3667 3.16422 39.9277 2.57736C34.1932 1.19975 27.0183 2.27099 22.1986 2.23647C19.3545 2.21597 15.979 1.95598 12.7566 2.29472C9.68337 2.61836 6.7435 3.47815 4.61467 5.72959C3.32156 7.09965 2.74267 8.86239 2.47299 10.7341C2.18157 12.7406 2.23788 14.8723 2.228 16.8422C2.17959 26.0292 2.74662 31.5839 3.06965 40.7676C3.06965 40.7881 3.06965 40.8086 3.06965 40.8302C2.97778 43.4656 3.82932 46.1583 5.36346 48.2954L5.35556 48.2781C4.55836 46.0407 4.42104 43.3675 4.23928 41.1398C4.13753 39.8679 4.06048 38.596 3.99725 37.323C3.85204 34.365 3.77103 31.4069 3.56951 28.451C3.4154 26.1176 3.18128 23.507 3.09929 20.947C3.04397 19.1864 3.06076 17.4506 3.20993 15.8443C3.38478 14.0168 3.56062 11.9553 4.09801 10.0793C4.48427 8.71999 5.06612 7.46104 5.92654 6.42325C7.04776 5.09094 8.63031 4.34766 10.3749 3.96684C12.6795 3.46197 15.2658 3.58927 17.2089 3.4199C20.1329 3.19767 23.217 2.9215 26.3525 2.81793C29.4109 2.71653 32.5118 2.76939 35.5475 3.12107C39.2332 3.54827 42.8142 4.42209 46.1018 6.01546ZM24.4341 14.8421C24.4094 14.841 24.3867 14.8421 24.363 14.8443C9.41072 16.1086 10.1664 40.5745 25.581 41.0847C33.9412 41.3609 39.4011 34.023 37.8749 25.055C36.974 19.7538 32.7193 15.0072 24.4341 14.8421ZM24.443 16.4743C31.7541 16.634 35.6117 20.6687 36.4079 25.3538C37.7475 33.2312 32.9712 39.6953 25.6284 39.4525C12.1362 39.0059 11.3805 17.62 24.441 16.4754L24.443 16.4743ZM24.9824 37.7081C25.9603 37.9358 26.9413 38.0782 27.942 38.0533C28.9871 38.0275 29.9967 37.7912 30.9796 37.3726C31.764 36.9972 32.4723 36.5344 33.0937 35.9778C33.5303 35.5862 33.9245 35.1514 34.2564 34.6735C35.1079 33.4556 35.6453 32.0262 35.8765 30.5471C36.0572 29.3864 36.0553 28.1997 35.8518 27.027C35.5683 25.3894 34.9242 23.8209 33.9017 22.4336C35.0941 24.9363 35.1919 27.6959 34.4678 30.175C34.1201 31.3638 33.555 32.4523 32.823 33.4426C32.5434 33.8234 32.251 34.1988 31.9221 34.5505C31.443 35.0673 30.9243 35.5624 30.3119 35.9713C29.5413 36.5355 28.7086 36.9174 27.8264 37.1849C26.8909 37.4676 25.9495 37.6391 24.9824 37.7081ZM39.5651 7.79547C38.3767 8.14176 37.6862 9.16984 37.5222 10.4158C37.2367 12.595 39.41 14.266 41.1981 13.5767C42.2541 13.1689 42.8458 12.0125 42.8834 10.8021C42.9169 9.7265 42.504 8.65203 41.7187 8.08998C41.1872 7.70701 40.47 7.53224 39.5651 7.79547ZM39.9494 9.37374C40.3475 9.25723 40.6666 9.28743 40.9017 9.45572C41.2692 9.71787 41.4075 10.2454 41.3927 10.747C41.3759 11.2907 41.1753 11.8539 40.7022 12.0362C39.8901 12.3501 38.8717 11.637 39.0001 10.6467C39.0781 10.0523 39.3824 9.53879 39.9494 9.37374Z" fill="black"/>
</svg>
