<svg width="54" height="54" viewBox="0 0 54 54" fill="none" xmlns="http://www.w3.org/2000/svg">
<path d="M27.0206 0.176208C12.6306 0.176208 0.950195 12.1223 0.950195 26.8396C0.950195 41.5558 12.6306 53.503 27.0206 53.503C41.4095 53.503 53.0909 41.5558 53.0909 26.8396C53.0909 12.1223 41.4095 0.176208 27.0206 0.176208ZM27.0206 1.65681C40.6275 1.65681 51.6422 12.9232 51.6422 26.8396C51.6422 39.4968 42.5284 49.9602 30.6408 51.7488V34.2458H37.0062L38.5295 26.8396H30.6428V21.2325C30.6428 20.2855 30.846 19.6955 31.3197 19.2977C31.7944 18.902 32.6244 18.6691 33.9475 18.6691L37.8597 18.6952L37.8842 11.7475L37.627 11.666C35.0369 10.8505 32.7939 10.602 30.8889 10.7942C28.9828 10.9852 27.4157 11.6138 26.1803 12.5525C23.7077 14.4299 22.602 17.4966 22.6755 20.5737V26.8396H16.1579V34.2458H22.6755V51.6235C11.1452 49.5258 2.39787 39.2378 2.39787 26.8396C2.39787 12.9232 13.4137 1.65681 27.0206 1.65681ZM24.604 4.07402C24.5989 4.07506 24.5938 4.07506 24.5887 4.07611C24.5805 4.07611 24.5714 4.07715 24.5632 4.07819C19.4157 4.64726 14.4366 7.03418 10.6316 11.2014C10.5959 11.2369 10.5694 11.2776 10.55 11.3246C10.5316 11.3716 10.5224 11.4207 10.5224 11.4708C10.5234 11.5209 10.5336 11.57 10.554 11.6159C10.5734 11.6619 10.602 11.7026 10.6378 11.737C10.6735 11.7715 10.7154 11.7976 10.7613 11.8143C10.8083 11.832 10.8562 11.8383 10.9052 11.8362C10.9553 11.8331 11.0012 11.8206 11.0461 11.7976C11.09 11.7757 11.1288 11.7454 11.1605 11.7067C14.845 7.67111 19.6587 5.36459 24.6408 4.81536C24.6888 4.81223 24.7347 4.80075 24.7786 4.77986C24.8215 4.75898 24.8593 4.72974 24.8919 4.6932C24.9236 4.65665 24.9481 4.61489 24.9644 4.56894C24.9808 4.523 24.9869 4.47497 24.9848 4.4259C24.9828 4.37682 24.9705 4.32983 24.9501 4.28598C24.9297 4.24108 24.9011 4.20245 24.8654 4.16904C24.8297 4.13667 24.7898 4.11161 24.7439 4.0949C24.699 4.07924 24.652 4.07193 24.604 4.07402ZM32.2559 11.4885C33.6954 11.5052 35.3248 11.7621 37.1573 12.3155L37.139 17.9487L33.9527 17.9278H33.9506C32.5458 17.9278 31.5402 18.1565 30.8613 18.7234C30.1834 19.2914 29.918 20.1675 29.918 21.2325V27.5799H37.6372L36.4172 33.5055H29.9169V51.8418C28.9664 51.9556 28.0007 52.0214 27.0206 52.0214C25.7893 52.0214 24.5816 51.9274 23.3993 51.7488V33.5055H16.8817V27.5799H23.3993V20.557C23.3309 17.672 24.36 14.858 26.6112 13.1487C27.9925 12.1004 29.8587 11.4603 32.2559 11.4885ZM7.85166 15.3132C7.78632 15.3122 7.72404 15.3299 7.66789 15.3634C7.61072 15.3978 7.5658 15.4448 7.53415 15.5033C2.51834 24.5174 4.01399 36.2119 11.7669 43.6149C11.8026 43.6483 11.8425 43.6744 11.8874 43.6911C11.9323 43.7078 11.9793 43.7162 12.0272 43.7141C12.0752 43.712 12.1212 43.7016 12.1651 43.6807C12.2079 43.6609 12.2467 43.6327 12.2794 43.5961C12.3121 43.5606 12.3366 43.5199 12.3539 43.4729C12.3703 43.427 12.3774 43.38 12.3764 43.3309C12.3744 43.2818 12.3631 43.2348 12.3437 43.1899C12.3233 43.145 12.2957 43.1064 12.261 43.073C4.7511 35.9018 3.3116 24.5895 8.16304 15.8698C8.17937 15.8416 8.19162 15.8123 8.19979 15.781C8.20796 15.7497 8.21204 15.7173 8.21306 15.685C8.21306 15.6526 8.20898 15.6202 8.20081 15.5889C8.19264 15.5576 8.18039 15.5273 8.16508 15.4991C8.14875 15.4709 8.13037 15.4458 8.10791 15.4229C8.08545 15.3999 8.05992 15.3801 8.03338 15.3634C8.00582 15.3467 7.97621 15.3341 7.94558 15.3258C7.91495 15.3174 7.88433 15.3132 7.85166 15.3132ZM47.5973 18.3319C47.5667 18.3319 47.5381 18.335 47.5085 18.3423C47.4799 18.3496 47.4524 18.3601 47.4258 18.3736C47.3993 18.3883 47.3748 18.405 47.3523 18.4258C47.3298 18.4457 47.3104 18.4687 47.2941 18.4937C47.2768 18.5188 47.2635 18.5459 47.2533 18.5741C47.2431 18.6034 47.2359 18.6326 47.2329 18.6629C47.2298 18.6932 47.2308 18.7234 47.2349 18.7537C47.239 18.784 47.2461 18.8132 47.2574 18.8414C48.3171 21.6147 48.8143 24.5686 48.7428 27.5099C48.7306 27.9903 48.704 28.4706 48.6622 28.9488C48.6581 28.9968 48.6622 29.0448 48.6764 29.0918C48.6907 29.1388 48.7142 29.1816 48.7449 29.2192C48.7755 29.2568 48.8122 29.2871 48.8541 29.3101C48.897 29.333 48.9419 29.3466 48.9899 29.3508C49.0379 29.355 49.0848 29.3497 49.1308 29.3351C49.1767 29.3205 49.2175 29.2975 49.2553 29.2662C49.2921 29.2349 49.3217 29.1973 49.3431 29.1534C49.3656 29.1096 49.3788 29.0636 49.3829 29.0146C49.4268 28.5196 49.4544 28.0247 49.4666 27.5287V27.5277C49.5412 24.4882 49.0276 21.4393 47.9322 18.572C47.9056 18.5 47.8617 18.4426 47.8005 18.3987C47.7392 18.3548 47.6719 18.3329 47.5973 18.3319ZM48.3773 31.7868C48.2916 31.7857 48.215 31.8118 48.1466 31.8672C48.0792 31.9215 48.0363 31.9925 48.019 32.0791C47.7341 33.3415 47.337 34.5841 46.8286 35.7911C46.6989 36.0981 46.5631 36.403 46.4192 36.7047C46.3977 36.7496 46.3855 36.7956 46.3834 36.8446C46.3804 36.8937 46.3865 36.9417 46.4018 36.9877C46.4182 37.0347 46.4416 37.0764 46.4733 37.113C46.506 37.1495 46.5427 37.1788 46.5866 37.2007C46.6295 37.2216 46.6754 37.2341 46.7234 37.2372C46.7714 37.2404 46.8184 37.2331 46.8633 37.2174C46.9092 37.2007 46.949 37.1767 46.9858 37.1443C47.0215 37.1119 47.0501 37.0733 47.0705 37.0284C47.2196 36.7162 47.3595 36.4019 47.4942 36.0845C48.019 34.8367 48.4294 33.5514 48.7244 32.2452C48.7377 32.1898 48.7387 32.1355 48.7265 32.0802C48.7152 32.0248 48.6928 31.9747 48.6591 31.9309C48.6254 31.886 48.5835 31.8505 48.5345 31.8254C48.4855 31.8004 48.4324 31.7878 48.3773 31.7868ZM45.2706 39.2827C45.143 39.2838 45.044 39.3391 44.9735 39.4477C44.3661 40.3519 43.6872 41.2207 42.9327 42.0476C41.0501 44.1088 38.8715 45.7189 36.5274 46.8747C36.4845 46.8956 36.4468 46.9249 36.4151 46.9614C36.3825 46.998 36.359 47.0397 36.3426 47.0867C36.3273 47.1326 36.3202 47.1807 36.3232 47.2298C36.3263 47.2788 36.3375 47.3258 36.359 47.3697C36.3794 47.4146 36.408 47.4522 36.4437 47.4856C36.4794 47.5179 36.5203 47.543 36.5662 47.5587C36.6111 47.5754 36.6581 47.5816 36.7061 47.5785C36.7541 47.5764 36.8 47.5639 36.8429 47.543C39.2655 46.3474 41.5167 44.682 43.4616 42.552C44.2405 41.6989 44.9429 40.8009 45.5698 39.8675C45.6096 39.81 45.631 39.7474 45.6361 39.6774C45.6402 39.6085 45.6269 39.5427 45.5953 39.4811C45.5636 39.4195 45.5187 39.3704 45.4605 39.3349C45.4013 39.2994 45.338 39.2817 45.2706 39.2827Z" fill="black"/>
</svg>
